<?xml version="1.0" encoding="utf-8"?>
<!-- Generator: Adobe Illustrator 19.2.1, SVG Export Plug-In . SVG Version: 6.00 Build 0)  -->
<svg version="1.1" id="layer" xmlns="http://www.w3.org/2000/svg" xmlns:xlink="http://www.w3.org/1999/xlink" x="0px" y="0px"
	 viewBox="0 0 652 652" style="enable-background:new 0 0 652 652;" xml:space="preserve">
<style type="text/css">
	.st0{fill:#F0AB00;}
	.st1{filter:url(#Adobe_OpacityMaskFilter);}
	.st2{fill:#FFFFFF;}
	.st3{mask:url(#mask-2_1_);}
</style>
<g id="Final-Organism">
	<g id="O1-Header-_x28_Nav_x29_-375" transform="translate(-15.000000, -24.000000)">
		<g id="SAP-SuccessFactor-Logo-Copy-5" transform="translate(15.000000, 24.000000)">
			<path id="Fill-1" class="st0" d="M575.5,294c-8.3,0-13.9,6.2-13.9,15.4c0,10,9.1,19.6,19.6,30.8l6.3,6.7l6.3-6.7
				c10.5-11.1,19.6-20.7,19.6-30.8c0-9.2-5.6-15.4-13.9-15.4c-3.5,0-6.9,1.5-9.4,4.3l-2.7,2.9l-2.7-2.9
				C582.4,295.5,579.1,294,575.5,294z M587.6,357.9l-11.5-12.2c-11.7-12.3-21.8-23-21.8-36.3c0-13.4,9-23.2,21.3-23.2
				c4.4,0,8.5,1.5,12,4.2c3.5-2.7,7.7-4.2,12-4.2c12.3,0,21.3,9.8,21.3,23.2c0,13.3-10.1,24-21.8,36.3L587.6,357.9z"/>
			<g id="Group-5" transform="translate(0.000000, 4.000000)">
				<g id="Clip-4">
				</g>
				<defs>
					<filter id="Adobe_OpacityMaskFilter" filterUnits="userSpaceOnUse" x="20.9" y="300.1" width="519.5" height="40.7">
						<feColorMatrix  type="matrix" values="1 0 0 0 0  0 1 0 0 0  0 0 1 0 0  0 0 0 1 0"/>
					</filter>
				</defs>
				<mask maskUnits="userSpaceOnUse" x="20.9" y="300.1" width="519.5" height="40.7" id="mask-2_1_">
					<g class="st1">
						<polygon id="path-1_1_" class="st2" points="20.9,300.1 20.9,340.7 540.4,340.7 540.4,300.1 						"/>
					</g>
				</mask>
				<path id="Fill-3" class="st3" d="M514.9,336.2l3.4-4.8c2.5,2.2,6.3,3.7,9.8,3.7c2.6,0,4.5-0.9,4.5-2.8c0-2-1.5-2.7-5.3-3.4
					c-5.3-1-11-2.2-11-8.8c0-5.7,4.6-8.9,10.9-8.9c5.7,0,9.2,1.5,12.3,4l-3.3,4.8c-2.8-2-5.6-3.1-8.3-3.1c-2.4,0-3.8,1-3.8,2.5
					c0,1.7,1.5,2.4,5,3c5.5,1,11.4,2.2,11.4,8.6c0,6.8-5.9,9.5-12.4,9.5C521.8,340.6,517.7,338.7,514.9,336.2z M495.4,340v-28.2h8.5
					v4.7h0.1c1.5-2.4,4.2-5.3,9.5-5.3h0.3l-0.1,7.6c-0.3-0.1-1.7-0.2-2.2-0.2c-3.4,0-5.9,1.8-7.5,3.9V340H495.4z M482,326
					c0-4.7-1.6-8.5-5.8-8.5c-4.1,0-5.9,3.4-5.9,8.5c0,4.7,1.6,8.6,5.9,8.6C480.2,334.6,482,331.1,482,326z M461.8,325.9
					c0-11.1,7.5-14.7,14.4-14.7c6.8,0,14.3,3.7,14.3,14.7c0,11-7.5,14.7-14.3,14.7C469.4,340.6,461.8,336.9,461.8,325.9z
					 M443.6,332.1V318h-4.7v-6.2h4.7v-9.7h8.4v9.7h7.2v6.2H452v12.2c0,3,0.8,4,3.9,4c1,0,2.2-0.1,2.8-0.3v6.1
					c-0.6,0.2-3.7,0.4-5.6,0.4C444.8,340.4,443.6,337.4,443.6,332.1z M410.5,325.9c0-11.3,8-14.7,14.2-14.7c7.6,0,10.6,4.1,12.2,8.6
					l-7.1,2.4c-1.1-3.6-2.7-4.8-5.2-4.8c-3.4,0-5.6,2.9-5.6,8.5c0,5,1.6,8.6,5.5,8.6c2.3,0,4.3-1.2,5.5-5l7,2.4
					c-1.8,4.4-5.3,8.6-12.7,8.6C417.8,340.6,410.5,336.9,410.5,325.9z M397.6,331.6v-5.2c-6.7,0.7-9.5,2.4-9.5,5
					c0,1.8,1.3,2.7,3.1,2.7C394.1,334,396.2,333,397.6,331.6z M379.8,332.8c0-6.5,5.5-10.1,17.8-11.1V321c0-2.1-1.1-3.4-3.8-3.4
					c-3.6,0-6.6,1.5-9.2,3.5l-3.6-4.9c2.8-2.5,7-5,14-5c7.7,0,10.9,3.8,10.9,11.1v10.9c0,3.4,0.2,5.5,0.8,6.9h-8.4
					c-0.4-1.2-0.6-2.5-0.6-4.1c-2.6,2.9-5.6,4.6-9.8,4.6C383.5,340.4,379.8,337.6,379.8,332.8z M356,340v-39.2h25.8v7.2h-17.2v9.5
					h12.2v6.8h-12.2V340H356z M325.3,336.2l3.4-4.8c2.5,2.2,6.3,3.7,9.7,3.7c2.6,0,4.5-0.9,4.5-2.8c0-2-1.5-2.7-5.3-3.4
					c-5.3-1-11-2.2-11-8.8c0-5.7,4.6-8.9,10.9-8.9c5.8,0,9.2,1.5,12.3,4l-3.3,4.8c-2.8-2-5.6-3.1-8.3-3.1c-2.4,0-3.8,1-3.8,2.5
					c0,1.7,1.5,2.4,5,3c5.5,1,11.4,2.2,11.4,8.6c0,6.8-5.9,9.5-12.4,9.5C332.3,340.6,328.2,338.7,325.3,336.2z M297.1,336.2l3.4-4.8
					c2.5,2.2,6.3,3.7,9.7,3.7c2.6,0,4.5-0.9,4.5-2.8c0-2-1.5-2.7-5.3-3.4c-5.3-1-11-2.2-11-8.8c0-5.7,4.6-8.9,10.9-8.9
					c5.8,0,9.2,1.5,12.3,4l-3.3,4.8c-2.8-2-5.6-3.1-8.3-3.1c-2.4,0-3.8,1-3.8,2.5c0,1.7,1.5,2.4,5,3c5.5,1,11.4,2.2,11.4,8.6
					c0,6.8-5.9,9.5-12.4,9.5C304.1,340.6,300,338.7,297.1,336.2z M287.2,323.2c-0.4-4-2.2-5.9-5.4-5.9c-2.6,0-4.9,1.7-5.5,5.9H287.2
					z M267.8,325.9c0-11,8.3-14.7,14.1-14.7c5.8,0,12.9,2.9,12.9,15.7v1.3h-18.6c0.4,4.7,3,6.5,6.5,6.5c3.3,0,6.4-1.6,8.3-3.4
					l3.3,5.1c-3.3,2.8-7.3,4.2-12.2,4.2C274.8,340.6,267.8,336.8,267.8,325.9z M239.4,326c0-11.2,7.9-14.7,14.1-14.7
					c7.6,0,10.6,4.1,12.2,8.6l-7.1,2.4c-1.1-3.6-2.7-4.8-5.2-4.8c-3.4,0-5.6,2.9-5.6,8.5c0,5,1.6,8.6,5.5,8.6c2.3,0,4.3-1.2,5.5-5
					l7,2.4c-1.8,4.4-5.3,8.6-12.7,8.6C246.6,340.6,239.4,336.9,239.4,326z M210.1,325.9c0-11.3,8-14.7,14.2-14.7
					c7.6,0,10.6,4.1,12.2,8.6l-7.1,2.4c-1.1-3.6-2.7-4.8-5.2-4.8c-3.4,0-5.6,2.9-5.6,8.5c0,5,1.6,8.6,5.5,8.6c2.3,0,4.3-1.2,5.5-5
					l7,2.4c-1.8,4.4-5.3,8.6-12.7,8.6C217.3,340.6,210.1,336.9,210.1,325.9z M179.2,332.4v-20.6h8.5v18.1c0,2.5,1,3.9,3.3,3.9
					c2.3,0,4.2-1.2,6.1-2.9v-19.2h8.5V340h-8.5v-4.4c-1.7,2.2-4.8,5-9.7,5C182.6,340.6,179.2,338.2,179.2,332.4z M142.8,331.1
					l6.5-3.9c2.1,4.3,6.1,6.7,10.5,6.7c4,0,6.8-1.5,6.8-4.5c0-3-2.8-4.2-7.9-5.7c-7-2-14.2-3.8-14.2-12c0-7.3,5.7-11.7,14.1-11.7
					c8,0,12.8,3.9,15.5,8l-6,4.6c-2.1-3.3-5.8-5.6-9.6-5.6c-3.6,0-5.6,1.6-5.6,3.9c0,3.1,2.9,4.2,8,5.7c6.8,1.9,14.1,4,14.1,12.1
					c0,6.3-4.7,11.9-15.6,11.9C151,340.7,145.7,336.7,142.8,331.1z M103.4,319.4h5.8c5.3,0,7.3-2.1,7.3-5.8c0-3.7-1.9-5.7-7.3-5.7
					h-5.8V319.4z M94.8,340v-39.2H109c8.3,0,15.9,2.2,15.9,12.6c0,10.5-8.2,12.7-16,12.7h-5.5V340H94.8z M67.7,325h9.2l-4.5-13.3
					h-0.1L67.7,325z M54.7,340l13.8-39.3h8.2L90.5,340h-8.7l-2.9-8.7H65.6l-3,8.7H54.7z M20.9,331.1l6.5-3.9
					c2.2,4.3,6.1,6.7,10.5,6.7c4,0,6.8-1.5,6.8-4.5c0-3-2.8-4.2-7.9-5.7c-7-2-14.2-3.8-14.2-12c0-7.3,5.7-11.7,14.1-11.7
					c8,0,12.8,3.9,15.5,8l-6,4.6c-2.1-3.3-5.8-5.6-9.6-5.6c-3.6,0-5.6,1.6-5.6,3.9c0,3.1,2.9,4.2,8,5.7c6.8,1.9,14.1,4,14.1,12.1
					c0,6.3-4.7,11.9-15.6,11.9C29.1,340.7,23.8,336.7,20.9,331.1z"/>
			</g>
		</g>
	</g>
</g>
</svg>
